<svg width="1303" height="1361" viewBox="0 0 1303 1361" fill="none" xmlns="http://www.w3.org/2000/svg">
<path opacity="0.1" d="M1980.96 -453.249L2460.79 187.397C2499.24 238.74 2469.14 312.548 2405.75 322.354L723.027 582.642C655.782 593.044 604.183 524.15 633.078 462.546L1356.15 -1079.04C1383.39 -1137.11 1462.68 -1145.24 1501.14 -1093.9L1980.96 -453.249Z" stroke="#A6A5A4" stroke-width="3"/>
<path opacity="0.2" d="M1873.56 -373.882L2279.24 167.758C2313.18 213.073 2286.59 278.216 2230.64 286.843L809.17 506.003C749.864 515.146 704.369 454.403 729.824 400.063L1339.94 -902.378C1363.96 -953.647 1433.95 -960.838 1467.89 -915.523L1873.56 -373.882Z" stroke="#A6A5A4" stroke-width="3"/>
<path opacity="0.3" d="M1762.82 -290.94L2089.9 145.762C2119.31 185.032 2096.28 241.484 2047.79 248.967L901.42 425.891C850.014 433.825 810.576 381.169 832.648 334.07L1324.86 -716.258C1345.68 -760.685 1406.33 -766.911 1435.74 -727.642L1762.82 -290.94Z" stroke="#A6A5A4" stroke-width="3"/>
<path opacity="0.4" d="M1655.73 -211.803L1911.34 129.481C1936.21 162.689 1916.76 210.429 1875.76 216.8L978.282 356.259C934.742 363.024 901.32 318.401 920.059 278.521L1306.32 -543.506C1323.96 -581.057 1375.25 -586.295 1400.12 -553.087L1655.73 -211.803Z" stroke="#A6A5A4" stroke-width="3"/>
<path opacity="0.5" d="M1572.06 -149.132L1767.06 111.233C1787.41 138.397 1771.5 177.449 1737.97 182.673L1052.82 289.409C1017.19 294.96 989.826 258.429 1005.18 225.792L1300.31 -401.674C1314.76 -432.385 1356.7 -436.661 1377.05 -409.497L1572.06 -149.132Z" stroke="#A6A5A4" stroke-width="3"/>
<path opacity="0.6" d="M1508.07 -101.211L1661.31 103.384C1677.11 124.487 1664.79 154.827 1638.75 158.937L1098.5 244.203C1070.73 248.586 1049.39 220.089 1061.41 194.671L1295.18 -299.784C1306.45 -323.621 1339.03 -326.909 1354.84 -305.806L1508.07 -101.211Z" stroke="#A6A5A4" stroke-width="3"/>
<path opacity="0.7" d="M1441.63 -51.4444L1552.92 97.1542C1564.23 112.249 1555.39 133.95 1536.75 136.845L1146.01 197.542C1126.22 200.616 1111.03 180.334 1119.54 162.207L1287.69 -195.687C1295.71 -212.757 1319.02 -215.138 1330.33 -200.043L1441.63 -51.4444Z" stroke="#A6A5A4" stroke-width="3"/>
<path opacity="0.8" d="M1388.67 -12.8583L1463.23 86.685C1472.26 98.7418 1465.22 116.076 1450.35 118.429L1187.36 160.017C1171.48 162.528 1159.28 146.236 1166.15 131.709L1280.03 -108.966C1286.48 -122.583 1305.09 -124.459 1314.12 -112.402L1388.67 -12.8583Z" stroke="#A6A5A4" stroke-width="3"/>
<path d="M1342.83 21.4754L1386.48 79.7543C1393.27 88.8137 1387.96 101.837 1376.77 103.57L1223.65 127.287C1211.78 129.125 1202.67 116.964 1207.77 106.091L1273.6 -34.1838C1278.41 -44.4303 1292.4 -45.8628 1299.18 -36.8034L1342.83 21.4754Z" stroke="#A6A5A4" stroke-width="3"/>
</svg>
