<svg width="616" height="1721" viewBox="0 0 616 1721" fill="none" xmlns="http://www.w3.org/2000/svg">
<path opacity="0.1" d="M246.098 652.178L439.554 139.502C462.802 77.8948 544.249 64.9765 585.419 116.367L1257.91 955.804C1298.3 1006.23 1269.9 1081.5 1206.26 1092.67L146.859 1278.58C82.003 1289.97 29.3933 1226.46 52.6406 1164.85L246.098 652.178Z" stroke="#A6A5A4" stroke-width="3"/>
<path opacity="0.2" d="M329.044 684.156L492.016 252.266C512.535 197.89 584.431 186.506 620.744 231.883L1186.4 938.718C1222 983.201 1196.95 1049.57 1140.84 1059.44L249.244 1216.39C192.006 1226.46 145.553 1170.42 166.071 1116.05L329.044 684.156Z" stroke="#A6A5A4" stroke-width="3"/>
<path opacity="0.3" d="M415.215 716.673L545.781 370.664C563.562 323.543 625.864 313.673 657.339 352.991L1110.73 919.352C1141.59 957.906 1119.88 1015.44 1071.24 1023.99L356.723 1149.65C307.119 1158.37 266.869 1109.8 284.65 1062.68L415.215 716.673Z" stroke="#A6A5A4" stroke-width="3"/>
<path opacity="0.4" d="M497.924 748.562L599.202 480.166C614.238 440.32 666.907 431.946 693.56 465.165L1046.37 904.911C1072.56 937.546 1054.16 986.306 1012.94 993.508L457.571 1090.55C415.617 1097.88 381.609 1056.8 396.645 1016.96L497.924 748.562Z" stroke="#A6A5A4" stroke-width="3"/>
<path opacity="0.5" d="M563.034 773.13L639.744 569.842C652.043 537.248 695.122 530.39 716.934 557.554L984.484 890.747C1005.93 917.453 990.865 957.372 957.124 963.254L536.154 1036.64C501.834 1042.62 474.024 1009.01 486.324 976.418L563.034 773.13Z" stroke="#A6A5A4" stroke-width="3"/>
<path opacity="0.6" d="M612.821 791.918L673.185 631.949C682.74 606.628 716.187 601.268 733.176 622.334L945.02 885.02C961.783 905.806 950.03 936.954 923.713 941.484L591.141 998.736C564.471 1003.33 542.903 977.207 552.457 951.887L612.821 791.918Z" stroke="#A6A5A4" stroke-width="3"/>
<path opacity="0.7" d="M664.526 811.428L708.429 695.08C715.264 676.967 739.206 673.161 751.32 688.262L904.24 878.881C916.14 893.715 907.777 915.877 889.044 919.152L648.317 961.229C629.246 964.562 613.787 945.889 620.622 927.776L664.526 811.428Z" stroke="#A6A5A4" stroke-width="3"/>
</svg>
