<svg width="829" height="1547" viewBox="0 0 829 1547" fill="none" xmlns="http://www.w3.org/2000/svg">
<path opacity="0.1" d="M-637.146 356.142L-396.511 -94.6542C-366.862 -150.198 -289.222 -155.353 -252.49 -104.217L422.361 835.267C463.504 892.544 421.026 972.121 350.542 969.811L-805.581 931.921C-868.508 929.858 -907.431 862.483 -877.782 806.939L-637.146 356.142Z" stroke="#A6A5A4" stroke-width="3"/>
<path opacity="0.2" d="M-549.826 403.422L-347.068 23.5836C-320.9 -25.4389 -252.369 -29.9729 -219.971 15.1749L347.74 806.29C384 856.819 346.545 926.986 284.385 924.978L-688.842 893.54C-744.383 891.746 -778.753 832.283 -752.584 783.261L-549.826 403.422Z" stroke="#A6A5A4" stroke-width="3"/>
<path opacity="0.3" d="M-459.067 451.87L-296.576 147.466C-273.899 104.983 -214.512 101.05 -186.43 140.171L268.762 774.294C300.198 818.088 267.73 878.912 213.849 877.164L-566.324 851.848C-614.455 850.287 -644.235 798.756 -621.558 756.274L-459.067 451.87Z" stroke="#A6A5A4" stroke-width="3"/>
<path opacity="0.4" d="M-371.998 499.016L-245.914 262.816C-226.737 226.89 -176.526 223.54 -152.745 256.6L201.649 749.279C228.315 786.35 200.802 837.891 155.162 836.365L-451.399 816.086C-492.1 814.725 -517.259 771.142 -498.081 735.216L-371.998 499.016Z" stroke="#A6A5A4" stroke-width="3"/>
<path opacity="0.5" d="M-303.421 535.622L-207.89 356.657C-192.203 327.27 -151.133 324.522 -131.67 351.557L137.188 725.033C159.026 755.368 136.503 797.561 99.1465 796.298L-360.775 780.752C-394.068 779.626 -414.64 743.974 -398.952 714.586L-303.421 535.622Z" stroke="#A6A5A4" stroke-width="3"/>
<path opacity="0.6" d="M-250.983 563.614L-175.822 422.811C-163.635 399.979 -131.74 397.815 -116.58 418.79L96.3318 713.366C113.398 736.978 95.8312 769.886 66.7165 768.846L-296.516 755.876C-322.38 754.952 -338.331 727.248 -326.144 704.416L-250.983 563.614Z" stroke="#A6A5A4" stroke-width="3"/>
<path opacity="0.7" d="M-196.526 592.682L-141.857 490.268C-133.14 473.937 -110.316 472.415 -99.5071 487.443L54.1315 701.052C66.2509 717.902 53.746 741.329 33.0018 740.636L-229.975 731.856C-248.476 731.238 -259.913 711.428 -251.195 695.097L-196.526 592.682Z" stroke="#A6A5A4" stroke-width="3"/>
<path opacity="0.8" d="M-153.83 616.143L-117.905 548.842C-110.942 535.798 -92.7202 534.559 -84.0551 546.54L17.8127 687.395C27.5716 700.888 17.5294 719.701 0.887239 719.102L-172.831 712.849C-187.607 712.317 -196.718 696.488 -189.755 683.443L-153.83 616.143Z" stroke="#A6A5A4" stroke-width="3"/>
<path d="M-116.26 636.197L-95.9507 598.15C-90.7191 588.349 -77.0201 587.438 -70.5369 596.46L-13.5423 675.772C-6.27835 685.881 -13.7766 699.928 -26.2175 699.518L-123.832 696.3C-134.935 695.934 -141.802 684.045 -136.57 674.244L-116.26 636.197Z" stroke="#A6A5A4" stroke-width="3"/>
</svg>
