<svg width="639" height="1261" viewBox="0 0 639 1261" fill="none" xmlns="http://www.w3.org/2000/svg">
<path d="M825.814 1175.18L1359.01 1108.33C1424.21 1100.16 1455.87 1024.25 1415.8 972.165L768.78 131.047C729.223 79.6243 648.963 89.6866 623.326 149.282L203.967 1124.1C177.999 1184.46 227.42 1250.2 292.622 1242.03L825.814 1175.18Z" stroke="#A6A5A4" stroke-opacity="0.1" stroke-width="3"/>
<path d="M814.225 1087.76L1263.33 1031.46C1320.87 1024.24 1348.81 957.232 1313.42 911.28L768.551 203.721C733.646 158.394 662.884 167.265 640.248 219.806L286.913 1039.97C263.966 1093.24 307.575 1151.28 365.123 1144.07L814.225 1087.76Z" stroke="#A6A5A4" stroke-opacity="0.2" stroke-width="3"/>
<path d="M802.86 997.107L1162.56 952.012C1212.43 945.759 1236.63 887.693 1205.98 847.867L769.55 280.942C739.3 241.647 677.957 249.337 658.344 294.885L375.378 952C355.499 998.163 393.293 1048.46 443.164 1042.2L802.86 997.107Z" stroke="#A6A5A4" stroke-opacity="0.3" stroke-width="3"/>
<path d="M791.301 909.94L1070.22 874.972C1112.39 869.685 1132.88 820.603 1107 786.896L768.432 346.109C742.839 312.789 690.849 319.307 674.274 357.914L455.003 868.638C438.235 907.692 470.212 950.196 512.384 944.908L791.301 909.94Z" stroke="#A6A5A4" stroke-opacity="0.4" stroke-width="3"/>
<path d="M782.714 841.444L993.903 814.967C1028.4 810.642 1045.17 770.5 1024 742.92L767.611 408.831C746.673 381.548 704.109 386.884 690.554 418.491L524.571 805.534C510.868 837.486 537.03 872.246 571.526 867.921L782.714 841.444Z" stroke="#A6A5A4" stroke-opacity="0.5" stroke-width="3"/>
<path d="M776.147 789.067L942.343 768.231C969.141 764.871 982.197 733.712 965.799 712.252L763.858 447.971C747.578 426.665 714.369 430.829 703.852 455.494L573.402 761.448C562.81 786.292 583.154 813.263 609.952 809.903L776.147 789.067Z" stroke="#A6A5A4" stroke-opacity="0.6" stroke-width="3"/>
<path d="M769.328 734.674L890.214 719.519C909.383 717.115 918.699 694.804 906.929 679.483L760.196 488.466C748.563 473.322 724.933 476.285 717.398 493.832L622.361 715.16C614.738 732.912 629.273 752.233 648.443 749.83L769.328 734.674Z" stroke="#A6A5A4" stroke-opacity="0.7" stroke-width="3"/>
<path d="M763.326 691.827L842.623 681.886C857.934 679.966 865.395 662.167 856.031 649.903L759.666 523.707C750.364 511.524 731.378 513.905 725.371 528.006L663.141 674.086C657.094 688.282 668.719 703.688 684.029 701.769L763.326 691.827Z" stroke="#A6A5A4" stroke-opacity="0.8" stroke-width="3"/>
</svg>
