<svg width="1037" height="1891" viewBox="0 0 1037 1891" fill="none" xmlns="http://www.w3.org/2000/svg">
<path d="M-898.403 1000.33L-542.102 1755.75C-514.069 1815.18 -432.082 1821.68 -395.027 1767.42L535.066 405.255C571.649 351.678 537.143 278.518 472.531 272.671L-1170.17 123.994C-1235.61 118.07 -1282.74 185.475 -1254.71 244.908L-898.403 1000.33Z" stroke="#A6A5A4" stroke-opacity="0.1" stroke-width="3"/>
<path d="M-784.395 945.563L-483.169 1584.21C-458.427 1636.67 -386.055 1642.39 -353.375 1594.48L431.658 443.483C463.893 396.22 433.47 331.718 376.496 326.532L-1010.99 200.229C-1068.75 194.971 -1110.36 254.457 -1085.62 306.914L-784.395 945.563Z" stroke="#A6A5A4" stroke-opacity="0.2" stroke-width="3"/>
<path d="M-665.875 889.662L-423.023 1404.55C-401.582 1450.01 -338.868 1454.97 -310.541 1413.45L322.682 485.357C350.631 444.393 324.258 388.478 274.871 383.99L-844.055 282.314C-894.11 277.766 -930.167 329.318 -908.726 374.776L-665.875 889.662Z" stroke="#A6A5A4" stroke-opacity="0.3" stroke-width="3"/>
<path d="M-552.193 835.051L-362.413 1237.42C-344.283 1275.86 -291.262 1280.08 -267.27 1245L229.272 518.924C252.989 484.244 230.637 436.854 188.791 433.098L-687.31 354.445C-729.642 350.644 -760.103 394.246 -741.972 432.687L-552.193 835.051Z" stroke="#A6A5A4" stroke-opacity="0.4" stroke-width="3"/>
<path d="M-462.641 792.814L-317.867 1099.76C-303.036 1131.2 -259.67 1134.67 -240.033 1105.98L139.246 551.859C158.671 523.479 140.372 484.682 106.117 481.621L-562.71 421.851C-597.338 418.756 -622.246 454.425 -607.415 485.869L-462.641 792.814Z" stroke="#A6A5A4" stroke-opacity="0.5" stroke-width="3"/>
<path d="M-394.164 760.515L-280.394 1001.73C-268.873 1026.15 -235.2 1028.88 -219.898 1006.62L80.142 570.236C95.3336 548.141 81.0559 517.87 54.3435 515.539L-473.236 469.507C-500.141 467.159 -519.455 494.878 -507.933 519.305L-394.164 760.515Z" stroke="#A6A5A4" stroke-opacity="0.6" stroke-width="3"/>
<path d="M-323.051 726.974L-240.422 902.161C-232.18 919.634 -208.079 921.555 -197.174 905.607L18.9814 589.496C29.7602 573.733 19.6011 552.193 0.581436 550.485L-380.831 516.223C-400.074 514.495 -413.921 534.314 -405.679 551.788L-323.051 726.974Z" stroke="#A6A5A4" stroke-opacity="0.7" stroke-width="3"/>
<path d="M-267.314 699.694L-211.969 817.034C-205.387 830.99 -186.149 832.551 -177.403 819.839L-31.2971 607.482C-22.6089 594.854 -30.7715 577.548 -46.0418 576.221L-302.837 553.897C-318.21 552.561 -329.241 568.399 -322.658 582.354L-267.314 699.694Z" stroke="#A6A5A4" stroke-opacity="0.8" stroke-width="3"/>
</svg>
